<?xml version="1.0" standalone="no"?>
<svg xmlns:xlink="http://www.w3.org/1999/xlink" id="wave" style="transform:rotate(180deg); transition: 0.3s" viewBox="0 0 1440 490" version="1.1" xmlns="http://www.w3.org/2000/svg"><defs><linearGradient id="sw-gradient-0" x1="0" x2="0" y1="1" y2="0"><stop stop-color="rgba(55, 55, 55, 1)" offset="0%"/><stop stop-color="rgba(114.159, 114.159, 114.159, 1)" offset="100%"/></linearGradient></defs><path style="transform:translate(0, 0px); opacity:1" fill="url(#sw-gradient-0)" d="M0,0L80,16.3C160,33,320,65,480,114.3C640,163,800,229,960,277.7C1120,327,1280,359,1440,310.3C1600,261,1760,131,1920,138.8C2080,147,2240,294,2400,351.2C2560,408,2720,376,2880,375.7C3040,376,3200,408,3360,392C3520,376,3680,310,3840,277.7C4000,245,4160,245,4320,253.2C4480,261,4640,278,4800,245C4960,212,5120,131,5280,130.7C5440,131,5600,212,5760,236.8C5920,261,6080,229,6240,204.2C6400,180,6560,163,6720,187.8C6880,212,7040,278,7200,326.7C7360,376,7520,408,7680,367.5C7840,327,8000,212,8160,187.8C8320,163,8480,229,8640,220.5C8800,212,8960,131,9120,122.5C9280,114,9440,180,9600,179.7C9760,180,9920,114,10080,147C10240,180,10400,310,10560,367.5C10720,425,10880,408,11040,375.7C11200,343,11360,294,11440,269.5L11520,245L11520,490L11440,490C11360,490,11200,490,11040,490C10880,490,10720,490,10560,490C10400,490,10240,490,10080,490C9920,490,9760,490,9600,490C9440,490,9280,490,9120,490C8960,490,8800,490,8640,490C8480,490,8320,490,8160,490C8000,490,7840,490,7680,490C7520,490,7360,490,7200,490C7040,490,6880,490,6720,490C6560,490,6400,490,6240,490C6080,490,5920,490,5760,490C5600,490,5440,490,5280,490C5120,490,4960,490,4800,490C4640,490,4480,490,4320,490C4160,490,4000,490,3840,490C3680,490,3520,490,3360,490C3200,490,3040,490,2880,490C2720,490,2560,490,2400,490C2240,490,2080,490,1920,490C1760,490,1600,490,1440,490C1280,490,1120,490,960,490C800,490,640,490,480,490C320,490,160,490,80,490L0,490Z"/></svg>